<svg width="20" height="20" viewBox="0 0 20 20" fill="none" xmlns="http://www.w3.org/2000/svg">
<g id="attatchment-02">
<path id="Icon (Stroke)" fill-rule="evenodd" clip-rule="evenodd" d="M6.83366 3.90082L6.83366 14.4011C6.83366 16.6248 8.22363 18.1668 10.2192 18.1668C12.2848 18.1668 13.7344 16.5525 13.7344 14.4011L13.7344 5.06009C13.7344 4.59985 14.1075 4.22676 14.5677 4.22676C15.028 4.22676 15.4011 4.59985 15.4011 5.06009L15.4011 14.4011C15.4011 17.3346 13.3379 19.8335 10.2192 19.8335C7.12987 19.8335 5.16699 17.3618 5.16699 14.4011L5.16699 3.90082C5.16699 1.83353 6.83369 0.16683 8.90098 0.16683C10.9683 0.16683 12.635 1.83353 12.635 3.90082L12.635 14.5855C12.635 15.8467 11.6125 16.8692 10.3513 16.8692C9.09009 16.8692 8.06765 15.8467 8.06765 14.5855L8.06765 5.06009C8.06765 4.59985 8.44075 4.22676 8.90098 4.22676C9.36122 4.22676 9.73432 4.59985 9.73432 5.06009L9.73432 14.5855C9.73432 14.9263 10.0106 15.2025 10.3513 15.2025C10.6921 15.2025 10.9683 14.9263 10.9683 14.5855L10.9683 3.90082C10.9683 2.754 10.0478 1.8335 8.90098 1.8335C7.75417 1.8335 6.83366 2.75401 6.83366 3.90082Z" fill="#00545C"/>
</g>
</svg>
