<svg xmlns="http://www.w3.org/2000/svg" width="20" height="20" fill="none"><path fill="#5FA6AF" fill-rule="evenodd" d="M10 3.333c-2.557 0-4.756 2.296-4.756 5.293v.01l-.02 1.816a6.08 6.08 0 0 1-.833 3.033h11.225a6.28 6.28 0 0 1-.798-3.037v-.01l.02-1.726C14.836 5.667 12.6 3.333 10 3.333ZM3.577 8.622C3.58 4.854 6.384 1.667 10 1.667c3.663 0 6.505 3.23 6.505 7.05v.01l-.02 1.725c0 1.06.387 1.95.793 2.56.289.436.258.945.12 1.301-.134.344-.5.838-1.154.838H3.756c-.664 0-1.029-.509-1.159-.853-.135-.359-.163-.877.14-1.313.423-.612.82-1.493.82-2.537v-.01l.02-1.816Zm3.55 7.6a.833.833 0 0 1 1.17-.13c.44.35 1.035.575 1.703.575.667 0 1.262-.224 1.702-.576a.833.833 0 0 1 1.04 1.302 4.39 4.39 0 0 1-2.742.94 4.39 4.39 0 0 1-2.743-.94.833.833 0 0 1-.13-1.17Z" clip-rule="evenodd"/></svg>