<svg xmlns="http://www.w3.org/2000/svg" width="12" height="11" fill="none"><g clip-path="url(#a)"><path fill="#819DA1" fill-rule="evenodd" d="m2.778 1.313.015.007 7.634 3.435c.104.047.208.093.29.14.075.042.221.13.304.298a.684.684 0 0 1 0 .606.717.717 0 0 1-.304.299 3.834 3.834 0 0 1-.29.14l-7.646 3.44c-.107.048-.213.096-.303.127a.719.719 0 0 1-.431.03.684.684 0 0 1-.453-.41.719.719 0 0 1-.014-.432c.022-.093.059-.203.096-.314l1.06-3.166-1.058-3.187-.005-.016c-.037-.11-.073-.22-.095-.313a.718.718 0 0 1 .014-.431.684.684 0 0 1 .454-.41.718.718 0 0 1 .43.03c.09.031.196.079.302.127Zm-.17.923L3.54 5.04h2.184a.456.456 0 1 1 0 .912H3.55l-.938 2.803 7.241-3.259-7.244-3.26Z" clip-rule="evenodd"/></g><defs><clipPath id="a"><path fill="#fff" d="M.938.027h10.938v10.938H.938z"/></clipPath></defs></svg>