<svg width="24" height="24" viewBox="0 0 24 24" fill="none" xmlns="http://www.w3.org/2000/svg">
<path fill-rule="evenodd" clip-rule="evenodd" d="M2.40002 1.3999C2.95231 1.3999 3.40002 1.84762 3.40002 2.3999V21.5999C3.40002 22.1522 2.95231 22.5999 2.40002 22.5999C1.84774 22.5999 1.40002 22.1522 1.40002 21.5999V2.3999C1.40002 1.84762 1.84774 1.3999 2.40002 1.3999ZM13.7304 5.28291C14.1264 5.66789 14.1353 6.30099 13.7504 6.69698L9.56696 10.9999H21.6C22.1523 10.9999 22.6 11.4476 22.6 11.9999C22.6 12.5522 22.1523 12.9999 21.6 12.9999H9.56696L13.7504 17.3028C14.1353 17.6988 14.1264 18.3319 13.7304 18.7169C13.3344 19.1019 12.7013 19.093 12.3164 18.697L6.48303 12.697C6.10569 12.3089 6.10569 11.6909 6.48303 11.3028L12.3164 5.30282C12.7013 4.90684 13.3344 4.89792 13.7304 5.28291Z" fill="black"/>
</svg>
