<svg xmlns="http://www.w3.org/2000/svg" width="12" height="11" fill="none"><g clip-path="url(#a)"><path fill="#222" fill-rule="evenodd" d="M6.168.625a.911.911 0 0 1 .476 0c.182.049.334.168.456.264l.034.027 3.09 2.404.036.027c.172.133.323.25.435.403.1.134.173.284.218.444.051.183.05.374.05.592v3.359c0 .24 0 .448-.013.618-.015.18-.048.36-.135.532-.132.257-.34.467-.598.598-.172.088-.352.12-.532.135-.17.014-.378.014-.618.014H3.745c-.24 0-.447 0-.618-.014a1.392 1.392 0 0 1-.532-.135 1.367 1.367 0 0 1-.597-.598 1.392 1.392 0 0 1-.135-.532c-.014-.17-.014-.378-.014-.618V4.786c0-.218 0-.409.05-.592.045-.16.119-.31.218-.444.113-.152.264-.27.435-.403l.036-.027L5.678.916l.035-.027c.121-.096.274-.215.455-.264Zm.235.886a3.31 3.31 0 0 0-.165.124l-3.09 2.404c-.228.177-.27.215-.298.253a.455.455 0 0 0-.073.148c-.013.046-.017.103-.017.39v3.298c0 .262 0 .432.011.561a.52.52 0 0 0 .04.192.456.456 0 0 0 .198.2.52.52 0 0 0 .192.038c.13.01.3.011.562.011h5.286c.263 0 .433 0 .562-.01a.52.52 0 0 0 .192-.04.456.456 0 0 0 .2-.199.52.52 0 0 0 .038-.192c.01-.129.011-.299.011-.561V4.83c0-.287-.004-.344-.017-.39a.455.455 0 0 0-.072-.148c-.029-.038-.071-.076-.298-.253l-3.09-2.404a3.31 3.31 0 0 0-.165-.124l-.004-.002a.474.474 0 0 0-.003.002Z" clip-rule="evenodd"/></g><defs><clipPath id="a"><path fill="#fff" d="M.938.016h10.938v10.938H.938z"/></clipPath></defs></svg>