<svg width="14" height="14" viewBox="0 0 14 14" fill="none" xmlns="http://www.w3.org/2000/svg">
<g id="eye-open">
<path id="Icon (Stroke)" fill-rule="evenodd" clip-rule="evenodd" d="M2.02512 7.06017C2.06317 6.96555 2.11766 6.83913 2.19055 6.69045C2.36205 6.34069 2.63192 5.87493 3.02361 5.41119C3.80007 4.49192 5.04815 3.58341 7.00009 3.58341C8.95203 3.58341 10.2001 4.49192 10.9766 5.41119C11.3683 5.87493 11.6381 6.34069 11.8096 6.69045C11.8835 6.84117 11.9385 6.96902 11.9766 7.06405C11.9374 7.15695 11.8813 7.28134 11.8065 7.42765C11.6313 7.77007 11.3571 8.22538 10.9627 8.67671C10.181 9.57135 8.93465 10.4474 7.00962 10.4159C5.07204 10.3842 3.81733 9.50114 3.03403 8.62046C2.63917 8.17651 2.36512 7.73323 2.19043 7.40173C2.11844 7.26512 2.06388 7.14855 2.02512 7.06017ZM12.6001 7.06949C13.1568 6.89516 13.1567 6.89488 13.1566 6.89459L13.1564 6.89392L13.1559 6.8923L13.1545 6.88795L13.1502 6.87486C13.1467 6.86422 13.1418 6.84977 13.1355 6.83178C13.123 6.7958 13.1048 6.74557 13.0805 6.68311C13.032 6.55832 12.9588 6.38408 12.8571 6.17684C12.6545 5.76359 12.3354 5.21199 11.8678 4.65838C10.9257 3.54295 9.37379 2.41675 7.00009 2.41675C4.62638 2.41675 3.07446 3.54295 2.13233 4.65838C1.66473 5.21199 1.34565 5.76359 1.14303 6.17684C1.04142 6.38408 0.968213 6.55832 0.919658 6.68311C0.895359 6.74557 0.877169 6.7958 0.864627 6.83178C0.858355 6.84977 0.853489 6.86422 0.849973 6.87486L0.845702 6.88795L0.844312 6.8923L0.8438 6.89392L0.84359 6.89459C0.843497 6.89488 0.84341 6.89516 1.40009 7.06949L0.84341 6.89516L0.786133 7.07807L0.848496 7.2593L1.40009 7.06949C0.848496 7.2593 0.848593 7.25958 0.848694 7.25987L0.848924 7.26054L0.849479 7.26213L0.85097 7.26639L0.8555 7.27905C0.859214 7.28932 0.864329 7.30319 0.870894 7.32043C0.884022 7.35491 0.902978 7.40292 0.928181 7.46256C0.978545 7.58173 1.05411 7.74791 1.1583 7.94563C1.36614 8.34003 1.69112 8.86607 2.16229 9.39581C3.11104 10.4625 4.65633 11.5443 6.99055 11.5824C9.33731 11.6208 10.8909 10.532 11.8413 9.44435C12.313 8.90453 12.6378 8.36431 12.8451 7.95901C12.9491 7.75574 13.0245 7.58463 13.0746 7.46199C13.0997 7.40061 13.1186 7.35121 13.1316 7.3158C13.1381 7.29809 13.1432 7.28387 13.1468 7.27338L13.1513 7.26047L13.1527 7.25617L13.1533 7.25457L13.1535 7.25391C13.1536 7.25361 13.1537 7.25334 12.6001 7.06949ZM12.6001 7.06949L13.1537 7.25334L13.213 7.07475L13.1568 6.89516L12.6001 7.06949ZM7.00009 6.23814C6.53394 6.23814 6.18342 6.6018 6.18342 7.01709C6.18342 7.43239 6.53394 7.79605 7.00009 7.79605C7.46623 7.79605 7.81675 7.43239 7.81675 7.01709C7.81675 6.6018 7.46623 6.23814 7.00009 6.23814ZM12.0438 7.24513C12.0439 7.24539 12.0439 7.24541 12.0438 7.24519L12.0438 7.24513ZM5.01675 7.01709C5.01675 5.92764 5.91984 5.07147 7.00009 5.07147C8.08033 5.07147 8.98342 5.92764 8.98342 7.01709C8.98342 8.10654 8.08033 8.96272 7.00009 8.96272C5.91984 8.96272 5.01675 8.10654 5.01675 7.01709Z" fill="#69737E"/>
</g>
</svg>
