<svg width="20" height="20" viewBox="0 0 20 20" fill="none" xmlns="http://www.w3.org/2000/svg">
<g id="folder">
<path id="Icon (Stroke)" fill-rule="evenodd" clip-rule="evenodd" d="M2.83369 4.21549L2.83366 4.21493C2.83391 5.00727 2.83424 6.19649 2.83423 7.01375L2.83415 14.9507C2.83415 15.4109 3.20725 15.784 3.66749 15.784L16.3331 15.7841C16.7933 15.7841 17.1664 15.411 17.1664 14.9507L17.1667 6.67686H10.0698C9.83923 6.67686 9.61899 6.58135 9.46143 6.41304L7.40421 4.21549H2.83369ZM1.16699 4.21546C1.1667 3.294 1.91376 2.54883 2.83369 2.54883H7.76559C7.99615 2.54883 8.21639 2.64434 8.37395 2.81265L10.4312 5.01019H17.1667C18.0872 5.01019 18.8334 5.75641 18.8333 6.67691L18.8331 14.9508C18.8331 16.3315 17.7138 17.4507 16.3331 17.4507L3.66748 17.4507C2.28677 17.4507 1.16747 16.3314 1.16749 14.9507L1.16757 7.01374C1.16757 6.19678 1.16724 5.00781 1.16699 4.21546Z" fill="#5FA6AF"/>
</g>
</svg>
