<svg width="14" height="14" viewBox="0 0 14 14" fill="none" xmlns="http://www.w3.org/2000/svg">
<g id="line-chart-up-01">
<path id="Icon (Stroke)" fill-rule="evenodd" clip-rule="evenodd" d="M1.39974 0.81665C1.72191 0.81665 1.98307 1.07782 1.98307 1.39998V12.0166H12.5997C12.9219 12.0166 13.1831 12.2778 13.1831 12.6C13.1831 12.9221 12.9219 13.1833 12.5997 13.1833H1.39974C1.07757 13.1833 0.816406 12.9221 0.816406 12.6V1.39998C0.816406 1.07782 1.07757 0.81665 1.39974 0.81665ZM9.04708 3.49998C9.04708 3.17782 9.30825 2.91665 9.63042 2.91665H12.6003C12.9224 2.91665 13.1836 3.17782 13.1836 3.49998V6.46983C13.1836 6.792 12.9224 7.05316 12.6003 7.05316C12.2781 7.05316 12.0169 6.792 12.0169 6.46983V4.90782L8.81222 8.11254C8.58441 8.34034 8.21507 8.34034 7.98726 8.11254L6.64974 6.77501L4.61222 8.81254C4.38441 9.04034 4.01507 9.04034 3.78726 8.81254C3.55945 8.58473 3.55945 8.21538 3.78726 7.98758L6.23726 5.53758C6.46507 5.30977 6.83441 5.30977 7.06222 5.53758L8.39974 6.8751L11.1915 4.08332H9.63042C9.30825 4.08332 9.04708 3.82215 9.04708 3.49998Z" fill="#69737E"/>
</g>
</svg>
