<svg width="32" height="32" viewBox="0 0 32 32" fill="none" xmlns="http://www.w3.org/2000/svg">
<path fill-rule="evenodd" clip-rule="evenodd" d="M16.0026 4C15.4156 4.00003 14.845 4.19374 14.3793 4.55109C13.9136 4.90844 13.5789 5.40947 13.4269 5.97647C13.275 6.54347 13.3144 7.14476 13.539 7.68709C13.7636 8.22942 14.1609 8.68247 14.6693 8.976V10.6667H10.6693C6.4026 10.6667 5.33594 14.2227 5.33594 16V25.3333C5.33594 26.2227 5.86927 28 8.0026 28H9.33594V22.6667C9.33594 22.313 9.47641 21.9739 9.72646 21.7239C9.97651 21.4738 10.3156 21.3333 10.6693 21.3333H21.3359C21.6896 21.3333 22.0287 21.4738 22.2787 21.7239C22.5288 21.9739 22.6693 22.313 22.6693 22.6667V28H24.0026C26.1359 28 26.6693 26.2227 26.6693 25.3333V16C26.6693 11.7333 23.1133 10.6667 21.3359 10.6667H17.3359V8.976C17.8443 8.68247 18.2416 8.22942 18.4662 7.68709C18.6908 7.14476 18.7302 6.54347 18.5783 5.97647C18.4264 5.40947 18.0916 4.90844 17.6259 4.55109C17.1602 4.19374 16.5896 4.00003 16.0026 4ZM20.0026 28V24H17.3359V28H20.0026ZM14.6693 28V24H12.0026V28H14.6693ZM28.0026 24V17.3333C28.8919 17.3333 30.6693 17.8667 30.6693 20V21.3333C30.6693 22.2227 30.1359 24 28.0026 24ZM4.0026 17.3333V24C1.86927 24 1.33594 22.2227 1.33594 21.3333V20C1.33594 17.8667 3.11327 17.3333 4.0026 17.3333ZM12.0026 16C11.649 16 11.3098 16.1405 11.0598 16.3905C10.8097 16.6406 10.6693 16.9797 10.6693 17.3333C10.6693 17.687 10.8097 18.0261 11.0598 18.2761C11.3098 18.5262 11.649 18.6667 12.0026 18.6667H12.0039C12.3576 18.6667 12.6967 18.5262 12.9467 18.2761C13.1968 18.0261 13.3373 17.687 13.3373 17.3333C13.3373 16.9797 13.1968 16.6406 12.9467 16.3905C12.6967 16.1405 12.3576 16 12.0039 16H12.0026ZM18.6693 17.3333C18.6693 16.9797 18.8097 16.6406 19.0598 16.3905C19.3098 16.1405 19.649 16 20.0026 16H20.0039C20.3576 16 20.6967 16.1405 20.9467 16.3905C21.1968 16.6406 21.3373 16.9797 21.3373 17.3333C21.3373 17.687 21.1968 18.0261 20.9467 18.2761C20.6967 18.5262 20.3576 18.6667 20.0039 18.6667H20.0026C19.649 18.6667 19.3098 18.5262 19.0598 18.2761C18.8097 18.0261 18.6693 17.687 18.6693 17.3333Z" fill="white"/>
</svg>
