<svg width="20" height="20" viewBox="0 0 20 20" fill="none" xmlns="http://www.w3.org/2000/svg">
<g id="message-chat-01">
<path id="Icon (Stroke)" fill-rule="evenodd" clip-rule="evenodd" d="M5.02653 8.60885C5.5404 8.43038 6.0924 8.33342 6.66705 8.33342C9.4282 8.33342 11.6663 10.5721 11.6663 13.3334C11.6663 13.908 11.5694 14.4599 11.391 14.9738C12.22 14.8952 12.9972 14.6434 13.6873 14.2552C13.8729 14.1509 14.0914 14.1215 14.2979 14.1731L16.5001 14.7237L16.1079 11.9776C16.0858 11.8231 16.1075 11.6656 16.1706 11.5228C16.4887 10.8034 16.6657 10.0069 16.6657 9.16675C16.6657 5.94502 14.0543 3.33341 10.833 3.33341C7.79984 3.33341 5.30735 5.64884 5.02653 8.60885ZM10.4672 16.5824C9.55027 17.6541 8.18801 18.3334 6.66705 18.3334C5.90188 18.3334 5.17513 18.1609 4.52522 17.8524L2.70248 18.3081C2.43331 18.3754 2.14829 18.3044 1.94224 18.1185C1.73619 17.9327 1.63614 17.6565 1.67538 17.3819L1.99795 15.1235C1.78448 14.5668 1.66779 13.9629 1.66779 13.3334C1.66779 11.8125 2.34678 10.4502 3.41816 9.53308C3.36396 9.42252 3.33353 9.29819 3.33353 9.16675C3.33353 5.02468 6.69108 1.66675 10.833 1.66675C14.9749 1.66675 18.3324 5.02468 18.3324 9.16675C18.3324 10.1567 18.1402 11.1036 17.7905 11.9708L18.3253 15.7149C18.3645 15.9896 18.2645 16.2658 18.0584 16.4516C17.8524 16.6374 17.5674 16.7085 17.2982 16.6412L14.2044 15.8677C13.1901 16.379 12.0441 16.6667 10.833 16.6667C10.7017 16.6667 10.5776 16.6364 10.4672 16.5824ZM6.66705 10.0001C4.82665 10.0001 3.33446 11.4923 3.33446 13.3334C3.33446 13.8141 3.43569 14.269 3.6172 14.6797C3.68028 14.8224 3.70203 14.9799 3.67997 15.1344L3.50054 16.3906L4.42581 16.1592C4.63239 16.1076 4.85091 16.137 5.0365 16.2414C5.51775 16.5121 6.07309 16.6667 6.66705 16.6667C8.50744 16.6667 9.99963 15.1745 9.99963 13.3334C9.99963 11.4923 8.50744 10.0001 6.66705 10.0001Z" fill="#5FA6AF"/>
</g>
</svg>
