<svg xmlns="http://www.w3.org/2000/svg" width="12" height="12" fill="none"><g clip-path="url(#a)"><path fill="#819DA1" fill-rule="evenodd" d="M4.15 1.488a3.19 3.19 0 0 1 5.446 2.255c0 1.328.334 2.208.684 2.77l.005.009c.163.261.292.468.378.619.044.075.083.148.113.212a.895.895 0 0 1 .044.115c.01.036.03.112.023.205a.676.676 0 0 1-.079.279.677.677 0 0 1-.195.214c-.114.085-.245.104-.289.11h-.002a2.11 2.11 0 0 1-.22.019c-.153.006-.365.006-.628.006H3.382c-.263 0-.474 0-.627-.006a2.11 2.11 0 0 1-.22-.018h-.003c-.043-.007-.174-.026-.288-.11a.675.675 0 0 1-.195-.215.675.675 0 0 1-.08-.28.558.558 0 0 1 .024-.204.904.904 0 0 1 .044-.115c.029-.064.069-.137.112-.212.087-.15.216-.358.378-.62l.006-.008c.35-.562.683-1.442.683-2.77 0-.846.336-1.657.934-2.255Zm2.256-.023a2.279 2.279 0 0 0-2.278 2.278c0 1.49-.377 2.538-.821 3.252l-.244.394h6.686a62.933 62.933 0 0 0-.243-.394c-.444-.714-.821-1.762-.821-3.252a2.279 2.279 0 0 0-2.279-2.278ZM5.04 9.668c0-.252.204-.456.456-.456h1.823a.456.456 0 0 1 0 .912H5.495a.456.456 0 0 1-.456-.456Z" clip-rule="evenodd"/></g><defs><clipPath id="a"><path fill="#fff" d="M.938.098h10.938v10.938H.938z"/></clipPath></defs></svg>