<svg xmlns="http://www.w3.org/2000/svg" width="12" height="11" fill="none"><g clip-path="url(#a)"><path fill="#819DA1" fill-rule="evenodd" d="M5.267 1.893a1.595 1.595 0 1 0 0 3.19 1.595 1.595 0 0 0 0-3.19ZM2.76 3.488a2.507 2.507 0 1 1 5.013 0 2.507 2.507 0 0 1-5.013 0Zm5.061-2.04a.456.456 0 0 1 .611-.205 2.507 2.507 0 0 1 0 4.491.456.456 0 1 1-.406-.816 1.595 1.595 0 0 0 0-2.86.456.456 0 0 1-.205-.61Zm-2.554 6.37c-1.157 0-2.239.604-3.06 1.648a.456.456 0 1 1-.716-.563c.953-1.213 2.28-1.997 3.776-1.997s2.823.784 3.776 1.997a.456.456 0 0 1-.716.563c-.821-1.044-1.903-1.648-3.06-1.648Zm3.458-.295a.456.456 0 0 1 .603-.227c.765.346 1.441.904 1.994 1.607a.456.456 0 0 1-.717.563c-.475-.604-1.04-1.062-1.652-1.34a.456.456 0 0 1-.228-.603Z" clip-rule="evenodd"/></g><defs><clipPath id="a"><path fill="#fff" d="M.938.07h10.938v10.938H.938z"/></clipPath></defs></svg>