<svg xmlns="http://www.w3.org/2000/svg" width="20" height="20" fill="none"><path fill="#5FA6AF" fill-rule="evenodd" d="M6.594 5.301c-.18.176-.326.46-.326.89 0 .863.566 1.335 1.142 1.335.577 0 1.142-.472 1.142-1.335 0-.43-.145-.714-.326-.89C8.04 5.121 7.762 5 7.41 5c-.352 0-.63.12-.816.301ZM5.432 4.106c.53-.514 1.239-.773 1.978-.773.74 0 1.45.259 1.978.773.534.52.831 1.249.831 2.085 0 1.671-1.203 3.001-2.809 3.001-1.605 0-2.809-1.33-2.809-3 0-.837.297-1.566.831-2.086Zm5.752 2.236a2.227 2.227 0 1 1 4.454 0 2.227 2.227 0 0 1-4.454 0Zm2.227-.56a.56.56 0 1 0 0 1.12.56.56 0 0 0 0-1.12Zm-.065 4.537c0-.46.373-.834.834-.834 1.066 0 2.068.3 2.825.83.754.526 1.329 1.334 1.329 2.322a2.84 2.84 0 0 1-.78 1.996c-.53.555-1.284.91-2.204 1.064a.833.833 0 1 1-.276-1.644c.664-.111 1.054-.34 1.273-.57.212-.223.32-.503.32-.846 0-.293-.169-.644-.616-.956-.445-.31-1.104-.529-1.871-.529a.833.833 0 0 1-.834-.833Zm-9.019 2.24c-.842.395-.993.776-.993.914 0 .26.128.605.752.93.65.34 1.756.597 3.444.597s2.792-.257 3.443-.597c.624-.325.752-.67.752-.93 0-.138-.15-.519-.993-.914-.777-.365-1.908-.613-3.202-.613-1.295 0-2.426.248-3.203.613ZM3.62 11.05c1.044-.49 2.428-.77 3.91-.77 1.484 0 2.867.28 3.91.77.979.459 1.953 1.258 1.953 2.423 0 1.043-.633 1.879-1.648 2.408-.987.515-2.397.786-4.214.786-1.818 0-3.227-.271-4.215-.786-1.015-.53-1.648-1.365-1.648-2.408 0-1.165.975-1.964 1.952-2.423Z" clip-rule="evenodd"/></svg>