<?xml version="1.0" standalone="no"?>
<!DOCTYPE svg PUBLIC "-//W3C//DTD SVG 20010904//EN"
 "http://www.w3.org/TR/2001/REC-SVG-20010904/DTD/svg10.dtd">
<svg version="1.0" xmlns="http://www.w3.org/2000/svg"
 width="640.000000pt" height="195.000000pt" viewBox="0 0 640.000000 195.000000"
 preserveAspectRatio="xMidYMid meet">

<g transform="translate(0.000000,195.000000) scale(0.100000,-0.100000)"
fill="#000000" stroke="none">
<path d="M995 1738 c-2 -7 -6 -38 -7 -68 l-3 -55 -65 -5 -65 -5 0 -60 0 -60
65 -5 65 -5 5 -65 5 -65 62 -3 62 -3 3 68 3 68 68 3 67 3 0 64 0 65 -64 0
c-73 0 -76 3 -76 86 l0 54 -60 0 c-40 0 -62 -4 -65 -12z"/>
<path d="M430 1490 c-11 -11 -22 -30 -25 -42 -3 -13 -5 -187 -3 -386 l3 -364
28 -24 28 -24 254 0 254 0 28 24 28 24 0 288 c0 267 -1 289 -17 292 -17 3 -18
-15 -18 -280 0 -208 -3 -287 -12 -296 -17 -17 -509 -17 -526 0 -15 15 -17 734
-2 758 7 12 43 16 176 20 121 4 169 8 172 18 3 9 -36 12 -172 12 -162 0 -178
-2 -196 -20z"/>
<path d="M800 1210 l0 -150 45 0 45 0 0 150 0 150 -45 0 -45 0 0 -150z"/>
<path d="M660 1185 l0 -125 55 0 55 0 0 125 0 125 -55 0 -55 0 0 -125z"/>
<path d="M2040 1071 c0 -206 1 -220 21 -245 16 -21 29 -26 64 -26 58 0 75 8
75 34 0 30 -15 50 -34 43 -8 -3 -22 1 -31 9 -12 13 -15 49 -15 210 l0 194 -40
0 -40 0 0 -219z"/>
<path d="M2250 1245 l0 -45 40 0 40 0 0 45 0 45 -40 0 -40 0 0 -45z"/>
<path d="M1270 1040 l0 -240 40 0 40 0 0 80 0 80 74 0 c59 0 79 4 107 23 70
46 90 145 44 222 -36 62 -71 75 -199 75 l-106 0 0 -240z m223 142 c34 -37 30
-110 -7 -134 -6 -4 -39 -8 -73 -8 l-63 0 0 80 0 80 63 0 c49 0 68 -4 80 -18z"/>
<path d="M3300 1041 l0 -241 40 0 40 0 0 81 0 80 47 -3 48 -3 43 -77 44 -78
45 0 45 0 -38 68 c-20 37 -44 77 -51 89 -13 19 -12 23 7 33 81 44 79 203 -4
263 -27 19 -46 22 -148 26 l-118 3 0 -241z m234 137 c9 -12 16 -38 16 -58 0
-20 -7 -46 -16 -58 -13 -19 -24 -22 -85 -22 l-69 0 0 80 0 80 69 0 c61 0 72
-3 85 -22z"/>
<path d="M5160 1220 c0 -57 -1 -60 -25 -60 -22 0 -25 -4 -25 -34 0 -28 4 -35
23 -38 21 -3 22 -8 27 -126 5 -115 7 -125 29 -143 26 -22 63 -24 110 -8 26 9
32 16 27 33 -3 11 -6 27 -6 35 0 9 -8 11 -24 7 -50 -13 -56 -2 -56 105 l0 99
35 0 c33 0 35 2 35 35 0 33 -2 35 -35 35 l-35 0 0 60 0 60 -40 0 -40 0 0 -60z"/>
<path d="M530 1160 l0 -100 50 0 50 0 0 100 0 100 -50 0 -50 0 0 -100z"/>
<path d="M1722 1143 c-37 -18 -77 -80 -87 -134 -13 -72 31 -161 96 -194 40
-21 113 -19 158 5 59 29 86 81 86 160 0 76 -25 126 -79 159 -41 26 -126 28
-174 4z m138 -73 c50 -50 49 -132 -2 -175 -39 -33 -73 -32 -109 4 -25 25 -29
37 -29 81 0 44 4 56 29 81 35 35 81 39 111 9z"/>
<path d="M2479 1138 c-98 -56 -113 -215 -27 -295 67 -63 193 -56 247 13 l22
29 -41 13 c-27 9 -45 11 -49 5 -10 -16 -48 -33 -71 -33 -12 0 -35 13 -51 29
-25 25 -29 37 -29 81 0 44 4 56 29 81 35 34 81 39 110 10 17 -17 24 -18 55 -9
20 6 36 17 36 23 0 14 -36 48 -67 64 -36 19 -124 13 -164 -11z"/>
<path d="M2745 1143 c4 -10 33 -91 66 -180 51 -143 57 -166 48 -193 -12 -34
-39 -53 -63 -44 -13 5 -16 -2 -16 -35 l0 -41 39 0 c73 0 93 28 156 223 31 95
65 198 75 230 l19 57 -38 0 -37 0 -39 -135 c-21 -75 -40 -133 -44 -130 -3 3
-24 63 -46 133 l-41 127 -43 3 c-39 3 -43 1 -36 -15z"/>
<path d="M3769 1137 c-150 -101 -89 -337 88 -337 70 0 168 68 131 91 -17 11
-58 11 -58 1 0 -13 -47 -32 -79 -32 -35 0 -81 44 -81 76 l0 24 131 0 132 0 -7
42 c-16 98 -81 158 -173 158 -35 0 -60 -7 -84 -23z m149 -61 c11 -11 23 -31
27 -43 6 -23 5 -23 -89 -23 l-95 0 10 29 c24 68 101 88 147 37z"/>
<path d="M4090 905 l0 -255 35 0 35 0 0 94 c0 53 4 98 10 101 6 3 10 2 10 -2
0 -17 59 -43 98 -43 150 0 204 248 72 338 -43 29 -112 30 -158 2 -40 -25 -42
-25 -42 0 0 16 -7 20 -30 20 l-30 0 0 -255z m219 164 c49 -46 51 -122 3 -171
-34 -37 -72 -36 -113 0 -25 23 -33 38 -36 78 -5 43 -2 54 22 82 33 39 88 44
124 11z"/>
<path d="M4556 1137 c-66 -37 -101 -136 -76 -211 45 -137 212 -171 296 -60 26
34 29 45 29 115 0 86 -14 115 -75 157 -45 30 -121 30 -174 -1z m148 -72 c62
-67 20 -195 -63 -195 -83 0 -121 131 -56 196 33 33 88 33 119 -1z"/>
<path d="M4880 980 l0 -180 35 0 35 0 0 109 c0 100 2 112 23 136 12 15 38 30
57 34 32 6 35 10 38 44 3 35 2 37 -26 37 -19 0 -41 -11 -61 -29 l-31 -29 0 29
c0 26 -3 29 -35 29 l-35 0 0 -180z"/>
<path d="M5440 1138 c-55 -38 -74 -71 -78 -142 -5 -76 14 -124 65 -163 68 -52
191 -37 237 29 16 22 15 23 -15 33 -28 10 -35 8 -55 -12 -34 -34 -87 -31 -125
6 -16 16 -29 39 -29 50 0 20 5 21 131 21 l132 0 -7 47 c-8 60 -44 115 -89 136
-51 25 -127 22 -167 -5z m153 -69 c47 -51 39 -59 -63 -59 -75 0 -90 3 -90 16
0 28 21 55 53 69 40 18 65 11 100 -26z"/>
<path d="M5760 980 l0 -180 40 0 40 0 0 113 c0 128 5 141 65 161 36 13 40 18
43 50 3 33 1 36 -24 36 -18 0 -40 -12 -61 -32 l-33 -32 0 32 c0 30 -2 32 -35
32 l-35 0 0 -180z"/>
<path d="M2250 975 l0 -175 40 0 40 0 0 175 0 175 -40 0 -40 0 0 -175z"/>
<path d="M530 975 l0 -45 180 0 180 0 0 45 0 45 -180 0 -180 0 0 -45z"/>
<path d="M530 845 l0 -45 135 0 135 0 0 45 0 45 -135 0 -135 0 0 -45z"/>
<path d="M5570 420 l0 -150 25 0 25 0 0 150 0 150 -25 0 -25 0 0 -150z"/>
<path d="M5660 540 c0 -16 1 -30 3 -30 2 0 13 14 25 30 l23 30 -26 0 c-21 0
-25 -5 -25 -30z"/>
<path d="M4000 421 c0 -137 7 -151 70 -151 56 0 70 19 70 94 0 35 -5 67 -12
74 -17 17 -49 15 -76 -4 l-22 -15 0 60 c0 48 -3 61 -15 61 -12 0 -15 -20 -15
-119z m105 -61 l0 -55 -35 0 c-35 0 -35 0 -38 48 -3 41 0 48 20 57 44 18 53 9
53 -50z"/>
<path d="M4556 466 c-21 -33 -21 -34 12 -38 27 -3 27 -4 30 -80 3 -75 4 -78
27 -78 25 0 25 1 25 88 0 94 -8 111 -56 126 -16 5 -26 0 -38 -18z"/>
<path d="M4682 460 l-23 -30 30 0 30 0 3 -77 c3 -77 3 -78 31 -81 l27 -3 0 84
c0 66 -4 89 -17 105 -31 35 -56 36 -81 2z"/>
<path d="M4863 479 c-40 -12 -59 -63 -49 -133 9 -60 32 -76 113 -76 56 0 63 2
63 20 0 16 -8 19 -57 22 -51 3 -58 6 -61 26 -3 21 0 22 57 22 l61 0 0 43 c0
67 -52 98 -127 76z m72 -64 c0 -15 -8 -21 -32 -23 -27 -3 -33 0 -33 16 0 26
10 33 40 30 17 -2 25 -9 25 -23z"/>
<path d="M5223 483 c-37 -7 -53 -41 -53 -110 0 -84 18 -103 95 -103 48 0 55 2
55 20 0 16 -7 20 -38 20 -47 0 -62 14 -62 58 0 52 15 72 55 72 28 0 35 4 35
20 0 13 -7 20 -19 20 -11 0 -25 2 -33 4 -7 2 -23 1 -35 -1z"/>
<path d="M5398 482 c-29 -2 -38 -8 -38 -22 0 -16 9 -19 52 -22 41 -2 54 -7 56
-20 3 -15 -4 -18 -35 -18 -56 0 -83 -22 -83 -70 0 -60 52 -80 97 -38 l23 21 0
-21 c0 -17 6 -22 25 -22 25 0 25 0 25 94 0 63 -4 97 -12 103 -17 13 -64 20
-110 15z m72 -131 c0 -20 -18 -31 -51 -31 -24 0 -26 37 -1 43 38 10 52 7 52
-12z"/>
<path d="M5805 483 c-34 -9 -45 -24 -45 -63 0 -44 11 -55 63 -64 29 -5 37 -11
35 -24 -3 -13 -14 -17 -51 -16 -43 0 -47 -2 -47 -23 0 -21 4 -23 56 -23 66 0
90 11 98 44 11 45 -8 74 -56 83 -58 12 -59 37 0 41 33 2 42 7 42 21 0 13 -10
21 -31 25 -17 3 -34 5 -38 5 -3 -1 -15 -4 -26 -6z"/>
<path d="M4470 375 l0 -105 25 0 25 0 0 105 0 105 -25 0 -25 0 0 -105z"/>
<path d="M5030 375 l0 -105 25 0 c24 0 25 3 25 58 0 59 18 92 48 92 7 0 12 14
12 30 0 36 -12 38 -40 8 l-20 -22 0 22 c0 17 -6 22 -25 22 l-25 0 0 -105z"/>
<path d="M5660 375 l0 -105 25 0 25 0 0 105 0 105 -25 0 -25 0 0 -105z"/>
<path d="M4180 443 c0 -18 54 -168 61 -171 4 -2 1 -21 -6 -43 -13 -36 -13 -39
3 -39 14 0 25 22 47 88 57 174 56 172 36 172 -14 0 -22 -16 -36 -65 -9 -36
-21 -68 -26 -70 -4 -3 -17 26 -29 65 -13 45 -26 70 -35 70 -8 0 -15 -3 -15 -7z"/>
<path d="M4470 216 c0 -9 12 -16 27 -18 22 -2 29 -9 33 -31 l5 -28 18 30 18
31 105 0 c86 0 104 3 104 15 0 13 -24 15 -155 15 -128 0 -155 -3 -155 -14z"/>
</g>
</svg>
