<svg width="19" height="20" viewBox="0 0 19 20" fill="none" xmlns="http://www.w3.org/2000/svg">
<path fill-rule="evenodd" clip-rule="evenodd" d="M14.1723 5.41747L4.458 8.92994L7.69429 10.8031L10.5479 7.94864C10.6927 7.80399 10.889 7.72276 11.0936 7.72283C11.2983 7.7229 11.4945 7.80427 11.6392 7.94903C11.7838 8.09379 11.8651 8.29008 11.865 8.49473C11.8649 8.69937 11.7835 8.89561 11.6388 9.04026L8.78437 11.8947L10.659 15.1302L14.1723 5.41747ZM14.4215 3.6863C15.3434 3.35226 16.2367 4.24561 15.9027 5.16751L11.8278 16.4348C11.493 17.359 10.2309 17.4716 9.7379 16.6207L7.2561 12.3329L2.9683 9.85107C2.11738 9.35811 2.22924 8.09599 3.15422 7.76118L14.4215 3.6863Z" fill="white"/>
</svg>
