<svg width="14" height="14" viewBox="0 0 14 14" fill="none" xmlns="http://www.w3.org/2000/svg">
<g id="trash-03">
<path id="Icon (Stroke)" fill-rule="evenodd" clip-rule="evenodd" d="M4.66667 1.75008C4.66667 1.42792 4.92783 1.16675 5.25 1.16675H8.75C9.07217 1.16675 9.33333 1.42792 9.33333 1.75008C9.33333 2.07225 9.07217 2.33341 8.75 2.33341H5.25C4.92783 2.33341 4.66667 2.07225 4.66667 1.75008ZM1.75 3.60302C1.75 3.28086 2.01117 3.01969 2.33333 3.01969H11.6667C11.9888 3.01969 12.25 3.28086 12.25 3.60302C12.25 3.92519 11.9888 4.18636 11.6667 4.18636H11.058C11.0588 4.2139 11.0587 4.24157 11.0576 4.26932L10.7916 11.0273C10.7852 11.9946 10.0348 12.8334 9.04167 12.8334H4.95833C3.96516 12.8334 3.21481 11.9946 3.20837 11.0273L2.94244 4.26932C2.94134 4.24157 2.94121 4.2139 2.942 4.18636H2.33333C2.01117 4.18636 1.75 3.92519 1.75 3.60302ZM4.11814 4.18636C4.11346 4.19233 4.10745 4.20439 4.1082 4.22345L4.375 11.0033V11.0148C4.375 11.4067 4.66713 11.6667 4.95833 11.6667H9.04167C9.33287 11.6667 9.625 11.4067 9.625 11.0148V11.0033L9.8918 4.22345C9.89255 4.20439 9.88654 4.19233 9.88186 4.18636H4.11814Z" fill="#69737E"/>
</g>
</svg>
