<svg width="16" height="16" viewBox="0 0 16 16" fill="none" xmlns="http://www.w3.org/2000/svg">
<g id="upload-03">
<path id="Icon (Stroke)" fill-rule="evenodd" clip-rule="evenodd" d="M7.52952 1.52809C7.78977 1.26831 8.21122 1.26831 8.47147 1.52809L11.5191 4.57021C11.7797 4.83032 11.7801 5.25243 11.5199 5.51302C11.2598 5.7736 10.8377 5.77398 10.5771 5.51387L8.66716 3.60734L8.66716 9.96158C8.66716 10.3298 8.36868 10.6283 8.00049 10.6283C7.6323 10.6283 7.33383 10.3298 7.33383 9.96158L7.33383 3.60734L5.42386 5.51387C5.16327 5.77398 4.74116 5.7736 4.48105 5.51302C4.22093 5.25243 4.22131 4.83032 4.4819 4.57021L7.52952 1.52809ZM2.66667 9.4695C3.03486 9.4695 3.33333 9.76798 3.33333 10.1362V12.5949C3.33333 12.8017 3.4116 12.9934 3.54077 13.1295C3.66881 13.2644 3.83479 13.3333 4 13.3333H12C12.1652 13.3333 12.3312 13.2644 12.4592 13.1295C12.5884 12.9934 12.6667 12.8017 12.6667 12.5949V10.1362C12.6667 9.76798 12.9651 9.4695 13.3333 9.4695C13.7015 9.4695 14 9.76798 14 10.1362V12.5949C14 13.1334 13.7973 13.6564 13.4264 14.0473C13.0543 14.4394 12.542 14.6666 12 14.6666H4C3.45797 14.6666 2.94567 14.4394 2.57361 14.0473C2.20268 13.6564 2 13.1334 2 12.5949V10.1362C2 9.76798 2.29848 9.4695 2.66667 9.4695Z" fill="#C7E2E5"/>
</g>
</svg>
