<svg width="60" height="60" viewBox="0 0 60 60" fill="none" xmlns="http://www.w3.org/2000/svg">
<path d="M33.75 18.75H37.5V22.5H33.75V18.75ZM22.5 18.75H26.25V22.5H22.5V18.75Z" fill="white"/>
<path d="M48.75 37.5H39.375V33.75H41.25C42.2443 33.749 43.1975 33.3536 43.9006 32.6506C44.6036 31.9475 44.999 30.9943 45 30V22.5H48.75V18.75H45V15C44.999 14.0057 44.6036 13.0525 43.9006 12.3494C43.1975 11.6464 42.2443 11.251 41.25 11.25H37.5V3.75H33.75V11.25H26.25V3.75H22.5V11.25H18.75C17.7557 11.251 16.8025 11.6464 16.0994 12.3494C15.3964 13.0525 15.001 14.0057 15 15V18.75H11.25V22.5H15V30C15.001 30.9943 15.3964 31.9475 16.0994 32.6506C16.8025 33.3536 17.7557 33.749 18.75 33.75H20.625V37.5H11.25C10.2557 37.501 9.30249 37.8964 8.59945 38.5994C7.8964 39.3025 7.50099 40.2557 7.5 41.25V56.25H11.25V41.25H48.75V56.25H52.5V41.25C52.499 40.2557 52.1036 39.3025 51.4006 38.5994C50.6975 37.8964 49.7443 37.501 48.75 37.5ZM18.75 15H41.25V30H18.75V15ZM24.375 33.75H35.625V37.5H24.375V33.75Z" fill="white"/>
</svg>
