<svg width="54" height="54" viewBox="0 0 54 54" fill="none" xmlns="http://www.w3.org/2000/svg">
<path d="M9.5 7.19C7.0625 7.43 5.4225 7.9725 4.1975 9.1975C2 11.3925 2 14.93 2 22V32C2 39.07 2 42.6075 4.1975 44.8025C5.4225 46.0275 7.0625 46.57 9.5 46.81M44.5 7.19C46.9375 7.43 48.5775 7.9725 49.8025 9.1975C52 11.3925 52 14.93 52 22V32C52 39.07 52 42.6075 49.8025 44.8025C48.5775 46.0275 46.9375 46.57 44.5 46.81M9.5 17C9.5 9.93 9.5 6.3925 11.6975 4.1975C13.8925 2 17.43 2 24.5 2H29.5C36.57 2 40.1075 2 42.3025 4.1975C44.5 6.3925 44.5 9.93 44.5 17V37C44.5 44.07 44.5 47.6075 42.3025 49.8025C40.1075 52 36.57 52 29.5 52H24.5C17.43 52 13.8925 52 11.6975 49.8025C9.5 47.6075 9.5 44.07 9.5 37V17Z" stroke="white" stroke-width="3"/>
<path d="M19.5 29.5H34.5M19.5 19.5H34.5M19.5 39.5H27" stroke="white" stroke-width="3" stroke-linecap="round"/>
</svg>
