<svg width="40" height="40" viewBox="0 0 40 40" fill="none" xmlns="http://www.w3.org/2000/svg">
<circle cx="20.002" cy="20" r="20" fill="white"/>
<g clip-path="url(#clip0_387_1292)">
<path d="M31.4385 25.8711C31.5322 25.9648 31.6143 26.0781 31.6846 26.2109C31.7549 26.3438 31.8135 26.4844 31.8604 26.6328C31.9072 26.7812 31.9424 26.9297 31.9658 27.0781C31.9893 27.2266 32.001 27.3672 32.001 27.5C32.001 27.7109 31.9619 27.9062 31.8838 28.0859C31.8057 28.2656 31.7002 28.4219 31.5674 28.5547C31.4346 28.6875 31.2744 28.7969 31.0869 28.8828C30.8994 28.9688 30.7041 29.0078 30.501 29H9.50098C9.29004 29 9.09473 28.9609 8.91504 28.8828C8.73535 28.8047 8.5791 28.6992 8.44629 28.5664C8.31348 28.4336 8.2041 28.2734 8.11816 28.0859C8.03223 27.8984 7.99316 27.7031 8.00098 27.5C8.00098 27.375 8.0127 27.2383 8.03613 27.0898C8.05957 26.9414 8.09473 26.7891 8.1416 26.6328C8.18848 26.4766 8.24707 26.3359 8.31738 26.2109C8.3877 26.0859 8.46973 25.9727 8.56348 25.8711L11.001 23.4336V12.5H29.001V23.4336L31.4385 25.8711ZM12.501 23H27.501V14H12.501V23ZM30.501 27.5C30.501 27.4141 30.4854 27.3047 30.4541 27.1719C30.4229 27.0391 30.376 26.9375 30.3135 26.8672L27.9346 24.5H12.0674L9.68848 26.8672C9.62598 26.9297 9.5791 27.0273 9.54785 27.1602C9.5166 27.293 9.50098 27.4062 9.50098 27.5H30.501Z" fill="#3E403D"/>
</g>
<defs>
<clipPath id="clip0_387_1292">
<rect width="24" height="24" fill="white" transform="translate(8.00195 8)"/>
</clipPath>
</defs>
</svg>
