<svg width="24" height="24" viewBox="0 0 24 24" fill="none" xmlns="http://www.w3.org/2000/svg">
<path fill-rule="evenodd" clip-rule="evenodd" d="M11.7805 4C7.48344 4 4 7.48344 4 11.7805C4 12.5785 4.12013 13.3484 4.3433 14.0732H6.65854C7.11653 14.0732 7.4878 13.7019 7.4878 13.2439V10.8659C7.4878 9.30329 8.75451 8.03658 10.3171 8.03658H12.1463C12.6043 8.03658 12.9756 7.66531 12.9756 7.20732V4.09756C12.9756 4.09545 12.9756 4.09334 12.9756 4.09123C12.586 4.03116 12.1869 4 11.7805 4ZM14.9756 4.68419C16.7956 5.50482 18.2437 7.0051 18.9958 8.86302C19.203 9.37495 19.786 9.62197 20.2979 9.41474C20.8099 9.20752 21.0569 8.62452 20.8497 8.11259C19.3995 4.53009 15.8867 2 11.7805 2C6.37887 2 2 6.37887 2 11.7805C2 17.1821 6.37887 21.561 11.7805 21.561C12.3328 21.561 12.7805 21.1133 12.7805 20.561C12.7805 20.0087 12.3328 19.561 11.7805 19.561C9.07006 19.561 6.68333 18.175 5.29034 16.0732H6.65854C8.2211 16.0732 9.4878 14.8065 9.4878 13.2439V10.8659C9.4878 10.4079 9.85908 10.0366 10.3171 10.0366H12.1463C13.7089 10.0366 14.9756 8.76988 14.9756 7.20732V4.68419ZM17.4878 12.7805C16.0795 12.7805 14.9756 13.8917 14.9756 15.2163C14.9756 15.5509 15.1105 15.9996 15.4039 16.5418C15.69 17.0706 16.0842 17.6103 16.4988 18.1061C16.8476 18.5231 17.1984 18.8943 17.4878 19.1841C17.7772 18.8943 18.128 18.5231 18.4768 18.1061C18.8914 17.6103 19.2856 17.0706 19.5717 16.5418C19.8652 15.9996 20 15.5509 20 15.2163C20 13.8917 18.8961 12.7805 17.4878 12.7805ZM17.4878 20.561C16.8316 21.3156 16.8315 21.3154 16.8313 21.3153L16.8299 21.3141L16.8269 21.3114L16.8171 21.3028L16.783 21.2726C16.7541 21.2468 16.7129 21.2099 16.6614 21.1626C16.5583 21.0682 16.4131 20.9324 16.2397 20.7628C15.8942 20.4248 15.4309 19.9466 14.9646 19.3892C14.5012 18.835 14.0173 18.1818 13.6449 17.4937C13.2798 16.819 12.9756 16.027 12.9756 15.2163C12.9756 12.7459 15.0166 10.7805 17.4878 10.7805C19.959 10.7805 22 12.7459 22 15.2163C22 16.027 21.6958 16.819 21.3307 17.4937C20.9583 18.1818 20.4744 18.835 20.011 19.3892C19.5447 19.9466 19.0814 20.4248 18.7359 20.7628C18.5625 20.9324 18.4173 21.0682 18.3142 21.1626C18.2627 21.2099 18.2215 21.2468 18.1926 21.2726L18.1585 21.3028L18.1487 21.3114L18.1457 21.3141L18.1447 21.315C18.1445 21.3151 18.144 21.3156 17.4878 20.561ZM17.4878 20.561L18.1447 21.315C17.7684 21.6422 17.2076 21.6425 16.8313 21.3153L17.4878 20.561ZM17.4878 14.2267C18.0401 14.2267 18.4878 14.6744 18.4878 15.2267V15.2927C18.4878 15.845 18.0401 16.2927 17.4878 16.2927C16.9355 16.2927 16.4878 15.845 16.4878 15.2927V15.2267C16.4878 14.6744 16.9355 14.2267 17.4878 14.2267Z" fill="black"/>
</svg>
