<svg xmlns="http://www.w3.org/2000/svg" width="24" height="24" fill="none"><path fill="#000" fill-rule="evenodd" d="M12.135 4.04a.25.25 0 0 0-.27 0l-7.8 5.274C4.012 9.35 4 9.392 4 9.416v9.872c0 .347.31.712.8.712H8v-5.847c0-1.23 1.033-2.141 2.2-2.141h3.6c1.167 0 2.2.912 2.2 2.14V20h3.2c.49 0 .8-.365.8-.712V9.416c0-.024-.012-.066-.065-.102l-7.8-5.274ZM19.2 22c1.498 0 2.8-1.167 2.8-2.712V9.416c0-.715-.364-1.366-.944-1.758l-7.8-5.275a2.25 2.25 0 0 0-2.512 0l-7.8 5.275A2.125 2.125 0 0 0 2 9.416v9.872C2 20.833 3.302 22 4.8 22h14.4ZM14 20v-5.847c0-.023-.008-.051-.04-.083a.229.229 0 0 0-.16-.058h-3.6a.229.229 0 0 0-.16.058c-.032.032-.04.06-.04.083V20h4Z" clip-rule="evenodd"/></svg>