<svg width="22" height="22" viewBox="0 0 22 22" fill="none" xmlns="http://www.w3.org/2000/svg">
<path fill-rule="evenodd" clip-rule="evenodd" d="M20.6 0.399902C21.1523 0.399902 21.6 0.847618 21.6 1.3999L21.6 20.5999C21.6 21.1522 21.1523 21.5999 20.6 21.5999C20.0477 21.5999 19.6 21.1522 19.6 20.5999L19.6 1.3999C19.6 0.847618 20.0477 0.399902 20.6 0.399902ZM9.26961 4.28291C9.6656 3.89792 10.2987 3.90684 10.6837 4.30282L16.517 10.3028C16.8944 10.6909 16.8944 11.3089 16.517 11.697L10.6837 17.697C10.2987 18.093 9.6656 18.1019 9.26961 17.7169C8.87363 17.3319 8.86471 16.6988 9.2497 16.3028L13.4331 11.9999L1.40002 11.9999C0.84774 11.9999 0.400024 11.5522 0.400024 10.9999C0.400024 10.4476 0.84774 9.9999 1.40002 9.9999L13.4331 9.9999L9.2497 5.69698C8.86471 5.301 8.87363 4.66789 9.26961 4.28291Z" fill="black"/>
</svg>
